<svg xmlns="http://www.w3.org/2000/svg" viewBox="0 0 1200 780" role="img" aria-labelledby="title desc">
  <title id="title">biriscv_frontend 前端模块数据通路</title>
  <desc id="desc">biriscv_npc、biriscv_fetch、biriscv_decode、双发射输出、分支反馈和 ICache/MMU 接口之间的固定布局连接图。</desc>
  <defs>
    <marker id="arrow" viewBox="0 0 10 10" refX="9" refY="5" markerWidth="7" markerHeight="7" orient="auto-start-reverse">
      <path d="M 0 0 L 10 5 L 0 10 z" fill="#2f4858"/>
    </marker>
    <marker id="arrow-teal" viewBox="0 0 10 10" refX="9" refY="5" markerWidth="7" markerHeight="7" orient="auto-start-reverse">
      <path d="M 0 0 L 10 5 L 0 10 z" fill="#00695c"/>
    </marker>
    <marker id="arrow-red" viewBox="0 0 10 10" refX="9" refY="5" markerWidth="7" markerHeight="7" orient="auto-start-reverse">
      <path d="M 0 0 L 10 5 L 0 10 z" fill="#bf360c"/>
    </marker>
    <filter id="shadow" x="-10%" y="-20%" width="120%" height="140%">
      <feDropShadow dx="0" dy="3" stdDeviation="4" flood-color="#000000" flood-opacity="0.11"/>
    </filter>
    <style>
      .canvas { fill: #fbfcfd; }
      .boundary { fill: #ffffff; stroke: #bcc7d3; stroke-width: 2; stroke-dasharray: 9 7; }
      .heading { font: 700 24px "Noto Sans SC", "Microsoft YaHei", Arial, sans-serif; fill: #263238; }
      .node-title { font: 700 17px "Noto Sans SC", "Microsoft YaHei", Arial, sans-serif; fill: #1d2730; text-anchor: middle; }
      .node-sub { font: 13px "Noto Sans SC", "Microsoft YaHei", Arial, sans-serif; fill: #37474f; text-anchor: middle; }
      .label { font: 12px "JetBrains Mono", "SFMono-Regular", Consolas, monospace; fill: #243441; text-anchor: middle; }
      .small-label { font: 11px "JetBrains Mono", "SFMono-Regular", Consolas, monospace; fill: #243441; text-anchor: middle; }
      .label-box { fill: #ffffff; stroke: #d8e0e8; stroke-width: 1; rx: 6; opacity: 0.97; }
      .line { fill: none; stroke: #2f4858; stroke-width: 2.3; marker-end: url(#arrow); }
      .line-teal { fill: none; stroke: #00695c; stroke-width: 2.4; marker-end: url(#arrow-teal); }
      .line-back { fill: none; stroke: #2f4858; stroke-width: 2.1; marker-end: url(#arrow); }
      .dash { fill: none; stroke: #bf360c; stroke-width: 2.2; stroke-dasharray: 8 6; marker-end: url(#arrow-red); }
      .bus { fill: none; stroke: #6a1b9a; stroke-width: 2.4; marker-start: url(#arrow); marker-end: url(#arrow); }
    </style>
  </defs>

  <rect class="canvas" width="1200" height="780"/>
  <rect class="boundary" x="48" y="48" width="1070" height="620" rx="20"/>
  <text class="heading" x="78" y="92">biriscv_frontend 前端模块</text>

  <g filter="url(#shadow)">
    <rect x="100" y="156" width="220" height="112" rx="12" fill="#fff9c4" stroke="#f57f17" stroke-width="3"/>
    <text class="node-title" x="210" y="194">biriscv_npc</text>
    <text class="node-sub" x="210" y="219">下一PC计算 + 分支预测</text>
    <text class="node-sub" x="210" y="242">(BTB / BHT / RAS)</text>

    <rect x="470" y="156" width="215" height="112" rx="12" fill="#b2dfdb" stroke="#00695c" stroke-width="3"/>
    <text class="node-title" x="577.5" y="198">biriscv_fetch</text>
    <text class="node-sub" x="577.5" y="226">取指单元 / PC管理</text>

    <rect x="820" y="156" width="220" height="112" rx="12" fill="#bbdefb" stroke="#0d47a1" stroke-width="3"/>
    <text class="node-title" x="930" y="198">biriscv_decode</text>
    <text class="node-sub" x="930" y="226">解码单元 (双发射)</text>

    <rect x="834" y="342" width="190" height="82" rx="12" fill="#c8e6c9" stroke="#2e7d32" stroke-width="2"/>
    <text class="node-title" x="929" y="374">发射单元</text>
    <text class="node-sub" x="929" y="398">Instruction 0</text>

    <rect x="834" y="492" width="190" height="82" rx="12" fill="#c8e6c9" stroke="#2e7d32" stroke-width="2"/>
    <text class="node-title" x="929" y="524">发射单元</text>
    <text class="node-sub" x="929" y="548">Instruction 1</text>

    <rect x="124" y="590" width="195" height="74" rx="12" fill="#e1bee7" stroke="#6a1b9a" stroke-width="2"/>
    <text class="node-title" x="221.5" y="620">ICache / MMU</text>

    <rect x="470" y="584" width="210" height="82" rx="12" fill="#ffccbc" stroke="#bf360c" stroke-width="2"/>
    <text class="node-title" x="575" y="616">分支反馈</text>
    <text class="node-sub" x="575" y="640">(来自执行单元)</text>

    <rect x="138" y="430" width="220" height="86" rx="12" fill="#ffccbc" stroke="#bf360c" stroke-width="2"/>
    <text class="node-title" x="248" y="463">分支结果</text>
    <text class="node-sub" x="248" y="489">(实际执行)</text>
  </g>

  <path class="line" d="M 320 194 C 382 160, 414 160, 470 194"/>
  <rect class="label-box" x="334" y="104" width="154" height="66"/>
  <text class="label" x="411" y="122">
    <tspan x="411" dy="0">next_pc_f_w[31:0]</tspan>
    <tspan x="411" dy="16">next_taken_f_w[1:0]</tspan>
    <tspan x="411" dy="16">(预测信息)</tspan>
  </text>

  <path class="line-back" d="M 470 238 C 388 306, 300 302, 246 268"/>
  <rect class="label-box" x="302" y="286" width="152" height="66"/>
  <text class="label" x="378" y="304">
    <tspan x="378" dy="0">fetch_pc_f_w[31:0]</tspan>
    <tspan x="378" dy="16">fetch_pc_accept_w</tspan>
    <tspan x="378" dy="16">(当前PC)</tspan>
  </text>

  <path class="line-teal" d="M 685 212 L 820 212"/>
  <rect class="label-box" x="696" y="128" width="112" height="82"/>
  <text class="small-label" x="752" y="145">
    <tspan x="752" dy="0">fetch_valid_w</tspan>
    <tspan x="752" dy="15">fetch_instr_w[63:0]</tspan>
    <tspan x="752" dy="15">fetch_pc_w[31:0]</tspan>
    <tspan x="752" dy="15">fetch_pred_branch_w</tspan>
  </text>

  <path class="line" d="M 940 268 C 950 296, 950 318, 940 342"/>
  <rect class="label-box" x="1016" y="300" width="136" height="66"/>
  <text class="small-label" x="1084" y="317">
    <tspan x="1084" dy="0">fetch0_valid_o</tspan>
    <tspan x="1084" dy="15">instr / pc [31:0]</tspan>
    <tspan x="1084" dy="15">+ 控制信号</tspan>
  </text>

  <path class="line" d="M 976 268 C 1066 338, 1066 455, 976 492"/>
  <rect class="label-box" x="1016" y="444" width="136" height="66"/>
  <text class="small-label" x="1084" y="461">
    <tspan x="1084" dy="0">fetch1_valid_o</tspan>
    <tspan x="1084" dy="15">instr / pc [31:0]</tspan>
    <tspan x="1084" dy="15">+ 控制信号</tspan>
  </text>

  <path class="line-back" d="M 834 402 C 770 388, 784 304, 873 268"/>
  <text class="label" x="765" y="384">fetch0_accept_i</text>
  <path class="line-back" d="M 834 532 C 746 500, 746 330, 891 268"/>
  <text class="label" x="740" y="518">fetch1_accept_i</text>

  <path class="line-back" d="M 820 238 C 744 314, 646 318, 606 268"/>
  <rect class="label-box" x="640" y="300" width="102" height="32"/>
  <text class="label" x="691" y="320">fetch_accept_w</text>

  <path class="dash" d="M 575 584 C 566 480, 566 360, 570 268"/>
  <rect class="label-box" x="490" y="492" width="138" height="48"/>
  <text class="label" x="559" y="510">
    <tspan x="559" dy="0">branch_request_i</tspan>
    <tspan x="559" dy="16">branch_pc_i[31:0]</tspan>
  </text>

  <path class="dash" d="M 680 604 C 762 492, 850 354, 912 268"/>
  <rect class="label-box" x="704" y="574" width="138" height="48"/>
  <text class="label" x="773" y="592">
    <tspan x="773" dy="0">branch_request_i</tspan>
    <tspan x="773" dy="16">branch_pc_i[31:0]</tspan>
  </text>

  <path class="dash" d="M 248 430 C 210 350, 206 296, 210 268"/>
  <rect class="label-box" x="62" y="300" width="168" height="98"/>
  <text class="small-label" x="146" y="317">
    <tspan x="146" dy="0">branch_info_request_i</tspan>
    <tspan x="146" dy="15">taken / not_taken</tspan>
    <tspan x="146" dy="15">source / pc</tspan>
    <tspan x="146" dy="15">call / ret / jmp</tspan>
  </text>

  <path class="bus" d="M 320 628 C 430 650, 480 374, 548 268"/>
  <rect class="label-box" x="332" y="650" width="214" height="82"/>
  <text class="small-label" x="439" y="667">
    <tspan x="439" dy="0">icache_rd_o / icache_pc_o[31:0]</tspan>
    <tspan x="439" dy="15">icache_inst_i[63:0]</tspan>
    <tspan x="439" dy="15">icache_valid_i</tspan>
    <tspan x="439" dy="15">icache_accept_i</tspan>
  </text>
</svg>
